<?xml version="1.0" encoding="iso-8859-1"?>
<!-- Generator: Adobe Illustrator 19.0.0, SVG Export Plug-In . SVG Version: 6.00 Build 0)  -->
<svg version="1.1" id="Layer_1" xmlns="http://www.w3.org/2000/svg" xmlns:xlink="http://www.w3.org/1999/xlink" x="0px" y="0px"
	 viewBox="0 0 495.007 495.007" style="enable-background:new 0 0 495.007 495.007;" xml:space="preserve">
<g>
	<path style="fill:#FFF5CC;" d="M62.319,411.69c6.592,7.429,13.622,14.458,21.054,21.047
		C75.942,426.148,68.911,419.119,62.319,411.69z"/>
	<path style="fill:#FFF5CC;" d="M83.375,62.269c-7.432,6.59-14.464,13.62-21.056,21.05C68.911,75.889,75.943,68.859,83.375,62.269z"
		/>
	<path style="fill:#FFF5CC;" d="M84.146,349.118l15.735-36.775l13.966,5.976c5.337-16.357,8.803-33.383,10.312-50.816h-15.073v-40
		h15.073c-1.509-17.433-4.974-34.459-10.312-50.816l-13.966,5.976l-15.735-36.775l13.951-5.97
		C87.8,120.787,74.684,103.035,58.949,87.195C22.193,130.384,0,186.35,0,247.507c0,61.154,22.193,117.117,58.948,160.306
		c15.735-15.84,28.851-33.592,39.148-52.725L84.146,349.118z"/>
	<path style="fill:#FFF5CC;" d="M58.949,87.195c1.057-1.242,2.126-2.472,3.207-3.693C61.075,84.723,60.006,85.953,58.949,87.195z"/>
	<path style="fill:#FFF5CC;" d="M62.154,411.504c-1.08-1.219-2.149-2.449-3.205-3.69C60.006,409.055,61.074,410.285,62.154,411.504z
		"/>
	<path style="fill:#FFF5CC;" d="M83.525,62.136c1.226-1.086,2.463-2.16,3.711-3.222c19.396,19.507,35.407,41.485,47.771,65.211
		l15.244-6.523l15.736,36.775l-15.235,6.519c7.282,21.347,11.87,43.686,13.553,66.607h16.684v40h-16.684
		c-1.683,22.921-6.271,45.26-13.553,66.607l15.235,6.519l-15.736,36.775l-15.244-6.523c-12.364,23.727-28.374,45.705-47.771,65.212
		c-1.248-1.061-2.484-2.135-3.71-3.221c43.664,38.653,101.072,62.131,163.971,62.131v-495
		C184.597,0.004,127.189,23.482,83.525,62.136z"/>
	<path style="fill:#FFEB99;" d="M396.908,139.924l13.94,5.965l-15.735,36.775l-13.954-5.971c-5.336,16.355-8.801,33.38-10.31,50.811
		h15.059v40h-15.059c1.509,17.431,4.974,34.455,10.31,50.811l13.954-5.971l15.735,36.775l-13.94,5.965
		c10.297,19.133,23.413,36.886,39.149,52.728c-1.058,1.244-2.13,2.476-3.212,3.698c38.672-43.668,62.162-101.088,62.162-164.002
		c0-62.915-23.489-120.335-62.158-164.003c1.081,1.221,2.151,2.451,3.208,3.693C420.321,103.038,407.205,120.791,396.908,139.924z"
		/>
	<path style="fill:#FFEB99;" d="M359.998,370.877l-15.255,6.528l-15.736-36.775l15.247-6.524
		c-7.281-21.345-11.869-43.683-13.552-66.602h-16.698v-40h16.698c1.683-22.919,6.271-45.256,13.552-66.602l-15.247-6.524
		l15.736-36.775l15.255,6.528c12.364-23.727,28.374-45.706,47.771-65.214c1.248,1.062,2.486,2.137,3.713,3.223
		C367.815,23.483,310.402,0.004,247.497,0.004v495c62.906,0,120.319-23.48,163.986-62.137c-1.227,1.087-2.465,2.162-3.714,3.224
		C388.372,416.583,372.362,394.604,359.998,370.877z"/>
	<path style="fill:#FFEB99;" d="M411.627,432.739c7.436-6.593,14.47-13.625,21.065-21.058
		C426.097,419.114,419.062,426.147,411.627,432.739z"/>
	<path style="fill:#FFEB99;" d="M432.687,83.322c-6.593-7.431-13.626-14.461-21.059-21.052
		C419.061,68.86,426.094,75.891,432.687,83.322z"/>
	<path style="fill:#FF3F62;" d="M359.998,124.13l36.91,15.794c10.297-19.133,23.413-36.886,39.149-52.727
		c-1.057-1.242-2.127-2.473-3.208-3.693c-0.054-0.061-0.108-0.122-0.162-0.182c-6.593-7.431-13.626-14.461-21.059-21.052
		c-0.049-0.043-0.098-0.087-0.147-0.13c-1.227-1.086-2.464-2.161-3.713-3.223C388.372,78.424,372.362,100.403,359.998,124.13z"/>
	<path style="fill:#FF3F62;" d="M432.692,411.681c0.051-0.058,0.102-0.115,0.153-0.173c1.082-1.222,2.153-2.454,3.212-3.698
		c-15.736-15.841-28.852-33.594-39.149-52.728l-36.91,15.794c12.364,23.727,28.374,45.706,47.771,65.214
		c1.249-1.062,2.487-2.138,3.714-3.224c0.048-0.042,0.096-0.085,0.143-0.127C419.062,426.147,426.097,419.114,432.692,411.681z"/>
	<path style="fill:#FF3F62;" d="M370.848,267.504h-40.146c1.683,22.919,6.271,45.256,13.552,66.602l36.904-15.791
		C375.822,301.959,372.357,284.934,370.848,267.504z"/>
	<path style="fill:#FF3F62;" d="M381.159,176.693l-36.904-15.791c-7.281,21.345-11.869,43.683-13.552,66.602h40.146
		C372.357,210.073,375.822,193.048,381.159,176.693z"/>
	<path style="fill:#FF6243;" d="M135.007,124.126c-12.364-23.726-28.374-45.704-47.771-65.211c-1.248,1.062-2.485,2.136-3.711,3.222
		c-0.05,0.044-0.1,0.089-0.15,0.133c-7.432,6.59-14.464,13.62-21.056,21.05c-0.054,0.061-0.109,0.122-0.163,0.184
		c-1.081,1.22-2.15,2.451-3.207,3.693c15.735,15.84,28.851,33.592,39.148,52.724L135.007,124.126z"/>
	<path style="fill:#FF6243;" d="M124.159,227.504h40.146c-1.683-22.921-6.271-45.26-13.553-66.607l-36.904,15.791
		C119.184,193.045,122.65,210.071,124.159,227.504z"/>
	<path style="fill:#FF6243;" d="M135.007,370.882l-36.91-15.794c-10.297,19.132-23.413,36.884-39.148,52.725
		c1.057,1.243,2.126,2.472,3.206,3.692c0.055,0.062,0.11,0.124,0.165,0.186c6.592,7.429,13.623,14.458,21.054,21.047
		c0.051,0.045,0.102,0.091,0.153,0.136c1.226,1.085,2.462,2.159,3.71,3.221C106.632,416.586,122.643,394.608,135.007,370.882z"/>
	<path style="fill:#FF6243;" d="M113.847,318.319l36.904,15.791c7.282-21.347,11.87-43.686,13.553-66.607h-40.146
		C122.65,284.936,119.184,301.963,113.847,318.319z"/>
	<rect x="109.086" y="227.504" style="fill:#FF0C38;" width="71.902" height="40"/>
	<polygon style="fill:#FF0C38;" points="84.146,145.889 99.881,182.664 113.847,176.688 150.751,160.897 165.987,154.378 
		150.251,117.603 135.007,124.126 98.096,139.919 	"/>
	<polygon style="fill:#FF0C38;" points="99.881,312.343 84.146,349.118 98.096,355.088 135.007,370.882 150.251,377.405 
		165.987,340.63 150.751,334.11 113.847,318.319 	"/>
	<rect x="314.005" y="227.504" style="fill:#C70024;" width="71.902" height="40"/>
	<polygon style="fill:#C70024;" points="395.112,182.664 410.848,145.889 396.908,139.924 359.998,124.13 344.743,117.603 
		329.007,154.378 344.255,160.902 381.159,176.693 	"/>
	<polygon style="fill:#C70024;" points="395.112,312.343 381.159,318.314 344.254,334.105 329.007,340.63 344.743,377.405 
		359.998,370.877 396.908,355.083 410.848,349.118 	"/>
</g>
<g>
</g>
<g>
</g>
<g>
</g>
<g>
</g>
<g>
</g>
<g>
</g>
<g>
</g>
<g>
</g>
<g>
</g>
<g>
</g>
<g>
</g>
<g>
</g>
<g>
</g>
<g>
</g>
<g>
</g>
</svg>
