<?xml version="1.0" encoding="iso-8859-1"?>
<!-- Generator: Adobe Illustrator 18.0.0, SVG Export Plug-In . SVG Version: 6.00 Build 0)  -->
<!DOCTYPE svg PUBLIC "-//W3C//DTD SVG 1.1//EN" "http://www.w3.org/Graphics/SVG/1.1/DTD/svg11.dtd">
<svg version="1.1" id="Capa_1" xmlns="http://www.w3.org/2000/svg" xmlns:xlink="http://www.w3.org/1999/xlink" x="0px" y="0px"
	 viewBox="0 0 297 297" style="enable-background:new 0 0 297 297;" xml:space="preserve">
<g>
	<g>
		<g>
			<path style="fill:#A38671;" d="M28.311,102.229c-8.05,7.475-15.259,15.687-21.463,24.531C2.283,133.268,0,140.884,0,148.5h28.311
				V102.229z"/>
		</g>
		<g>
			<path style="fill:#7F6452;" d="M0,148.5c0,7.616,2.283,15.232,6.848,21.74c6.204,8.844,13.413,17.056,21.463,24.531V148.5H0z"/>
		</g>
		<g>
			<path style="fill:#A38671;" d="M232.83,76.831c-24.752-12.993-53.53-20.452-84.251-20.452c-31.52,0-61.002,7.842-86.181,21.467
				V148.5H232.83V76.831z"/>
		</g>
		<g>
			<path style="fill:#7F6452;" d="M62.398,148.5v70.653c25.179,13.626,54.661,21.467,86.181,21.467
				c30.721,0,59.499-7.459,84.251-20.452V148.5H62.398z"/>
		</g>
		<g>
			<path style="fill:#A38671;" d="M289.836,126.089c-6.593-9.29-14.291-17.882-22.92-25.636V148.5H297
				C297,140.659,294.612,132.818,289.836,126.089z"/>
		</g>
		<g>
			<path style="fill:#7F6452;" d="M266.916,148.5v48.047c8.629-7.754,16.327-16.346,22.92-25.636
				c4.776-6.729,7.164-14.57,7.164-22.411H266.916z"/>
		</g>
		<g>
			<path style="fill:#BCA291;" d="M62.398,77.847c-12.524,6.777-23.974,14.992-34.086,24.382V148.5h34.086V77.847z"/>
		</g>
		<g>
			<path style="fill:#9B7A67;" d="M28.311,148.5v46.271c10.113,9.39,21.563,17.605,34.086,24.382V148.5H28.311z"/>
		</g>
		<g>
			<path style="fill:#BCA291;" d="M266.916,100.453c-10.155-9.125-21.611-17.073-34.086-23.621V148.5h34.086V100.453z"/>
		</g>
		<g>
			<path style="fill:#9B7A67;" d="M232.83,148.5v71.669c12.476-6.549,23.932-14.496,34.086-23.621V148.5H232.83z"/>
		</g>
	</g>
	<g>
		<rect x="62.398" y="139.978" style="fill:#F9B65F;" width="170.432" height="17.043"/>
	</g>
	<g>
		<g>
			<path style="fill:#E3E5E4;" d="M82.838,165.543h-6.794c-2.83,0-5.125-2.294-5.125-5.125v-23.837c0-2.83,2.294-5.125,5.125-5.125
				h6.794c2.83,0,5.125,2.294,5.125,5.125v23.837C87.963,163.249,85.668,165.543,82.838,165.543z"/>
		</g>
		<g>
			<path style="fill:#E3E5E4;" d="M116.924,165.543h-6.794c-2.83,0-5.125-2.294-5.125-5.125v-23.837c0-2.83,2.294-5.125,5.125-5.125
				h6.794c2.83,0,5.125,2.294,5.125,5.125v23.837C122.049,163.249,119.755,165.543,116.924,165.543z"/>
		</g>
		<g>
			<path style="fill:#E3E5E4;" d="M151.011,165.543h-6.794c-2.83,0-5.125-2.294-5.125-5.125v-23.837c0-2.83,2.294-5.125,5.125-5.125
				h6.794c2.83,0,5.125,2.294,5.125,5.125v23.837C156.135,163.249,153.841,165.543,151.011,165.543z"/>
		</g>
		<g>
			<path style="fill:#E3E5E4;" d="M185.097,165.543h-6.794c-2.83,0-5.125-2.294-5.125-5.125v-23.837c0-2.83,2.294-5.125,5.125-5.125
				h6.794c2.83,0,5.125,2.294,5.125,5.125v23.837C190.222,163.249,187.927,165.543,185.097,165.543z"/>
		</g>
		<g>
			<path style="fill:#E3E5E4;" d="M219.184,165.543h-6.794c-2.83,0-5.125-2.294-5.125-5.125v-23.837c0-2.83,2.294-5.125,5.125-5.125
				h6.794c2.83,0,5.125,2.294,5.125,5.125v23.837C224.308,163.249,222.014,165.543,219.184,165.543z"/>
		</g>
	</g>
</g>
<g>
</g>
<g>
</g>
<g>
</g>
<g>
</g>
<g>
</g>
<g>
</g>
<g>
</g>
<g>
</g>
<g>
</g>
<g>
</g>
<g>
</g>
<g>
</g>
<g>
</g>
<g>
</g>
<g>
</g>
</svg>
