<?xml version='1.0' encoding='utf-8'?>
<!DOCTYPE svg PUBLIC '-//W3C//DTD SVG 1.1//EN' 'http://www.w3.org/Graphics/SVG/1.1/DTD/svg11.dtd'>
<svg version="1.1" xmlns="http://www.w3.org/2000/svg" viewBox="0 0 512 512" xmlns:xlink="http://www.w3.org/1999/xlink" enable-background="new 0 0 512 512">
  <g>
    <path d="m256,11c-135.3,0-245,109.7-245,245 0,135.3 109.7,245 245,245s245-109.7 245-245c0-135.3-109.7-245-245-245zm10,467.9c-0.5,0-1.1,0-1.6,0.1v-95.3h77.9c-17.5,51.9-45.1,88.2-76.3,95.2zm-98.4-95.2h76v95.1c-0.1,0-0.1,0-0.2,0-31-7.3-58.4-43.5-75.8-95.1zm-134.5-117.3h94.3c0.7,34.7 5,67.3 12.2,96.5h-79.5c-15.8-28.9-25.4-61.7-27-96.5zm309.2-138.1h-77.9v-95.3c0.5,0 1.1,0 1.6,0.1 31.2,7 58.8,43.3 76.3,95.2zm6.2,20.8c7.7,29.1 12.4,61.9 13.2,96.5h-97.4v-96.5h84.2zm-105.1-115.9c0.1,0 0.1,0 0.2,0v95.1h-76c17.4-51.6 44.8-87.8 75.8-95.1zm.2,115.9v96.5h-95.4c0.8-34.6 5.5-67.5 13.2-96.5h82.2zm-116.2,96.5h-94.3c1.6-34.9 11.2-67.6 27-96.5h79.5c-7.2,29.2-11.5,61.8-12.2,96.5zm20.8,20.8h95.4v96.5h-82.2c-7.7-29.1-12.4-61.9-13.2-96.5zm116.2,96.5v-96.5h97.4c-0.8,34.6-5.5,67.5-13.2,96.5h-84.2zm118.1-96.5h96.4c-1.6,34.9-11.2,67.6-27,96.5h-81.6c7.2-29.2 11.5-61.8 12.2-96.5zm0-20.8c-0.7-34.7-5-67.3-12.2-96.5h81.6c15.8,28.9 25.4,61.7 27,96.5h-96.4zm56.5-117.3h-74.5c-11.3-36.4-27.5-66.3-46.9-86.8 49.8,14.3 92.5,45.4 121.4,86.8zm-247.5-86c-19,20.5-34.9,50.1-46.1,86h-72.4c28.4-40.6 70-71.3 118.5-86zm-118.5,341.4h72.4c11.2,35.9 27.1,65.5 46.1,86-48.5-14.7-90.1-45.4-118.5-86zm244.6,86.8c19.4-20.5 35.6-50.5 46.9-86.9h74.5c-28.9,41.5-71.6,72.7-121.4,86.9z"/>
  </g>
</svg>
